<svg xmlns="http://www.w3.org/2000/svg" version="1.1" xmlns:xlink="http://www.w3.org/1999/xlink" xmlns:svgjs="http://svgjs.dev/svgjs" width="1440" height="560" preserveAspectRatio="none" viewBox="0 0 1440 560"><g mask="url(&quot;#SvgjsMask1184&quot;)" fill="none"><path d="M94 402L473 23" stroke-width="10" stroke="url(&quot;#SvgjsLinearGradient1185&quot;)" stroke-linecap="round" class="BottomLeft"></path><path d="M78 131L-253 462" stroke-width="8" stroke="url(&quot;#SvgjsLinearGradient1186&quot;)" stroke-linecap="round" class="TopRight"></path><path d="M1408 550L1583 375" stroke-width="6" stroke="url(&quot;#SvgjsLinearGradient1185&quot;)" stroke-linecap="round" class="BottomLeft"></path><path d="M1303 528L954 877" stroke-width="10" stroke="url(&quot;#SvgjsLinearGradient1185&quot;)" stroke-linecap="round" class="BottomLeft"></path><path d="M1221 163L1039 345" stroke-width="6" stroke="url(&quot;#SvgjsLinearGradient1185&quot;)" stroke-linecap="round" class="BottomLeft"></path><path d="M399 69L661 -193" stroke-width="10" stroke="url(&quot;#SvgjsLinearGradient1185&quot;)" stroke-linecap="round" class="BottomLeft"></path><path d="M1198 132L1485 -155" stroke-width="10" stroke="url(&quot;#SvgjsLinearGradient1187&quot;)" stroke-linecap="round" class="TopRight"></path><path d="M249 367L-147 763" stroke-width="10" stroke="url(&quot;#SvgjsLinearGradient1187&quot;)" stroke-linecap="round" class="TopRight"></path><path d="M164 428L366 226" stroke-width="6" stroke="url(&quot;#SvgjsLinearGradient1188&quot;)" stroke-linecap="round" class="BottomLeft"></path><path d="M363 307L-46 716" stroke-width="6" stroke="url(&quot;#SvgjsLinearGradient1187&quot;)" stroke-linecap="round" class="TopRight"></path><path d="M299 16L508 -193" stroke-width="6" stroke="url(&quot;#SvgjsLinearGradient1187&quot;)" stroke-linecap="round" class="TopRight"></path><path d="M783 516L586 713" stroke-width="8" stroke="url(&quot;#SvgjsLinearGradient1185&quot;)" stroke-linecap="round" class="BottomLeft"></path><path d="M1174 66L1424 -184" stroke-width="10" stroke="url(&quot;#SvgjsLinearGradient1187&quot;)" stroke-linecap="round" class="TopRight"></path><path d="M742 531L992 281" stroke-width="6" stroke="url(&quot;#SvgjsLinearGradient1186&quot;)" stroke-linecap="round" class="TopRight"></path><path d="M164 347L-187 698" stroke-width="10" stroke="url(&quot;#SvgjsLinearGradient1188&quot;)" stroke-linecap="round" class="BottomLeft"></path><path d="M1269 324L1607 -14" stroke-width="8" stroke="url(&quot;#SvgjsLinearGradient1188&quot;)" stroke-linecap="round" class="BottomLeft"></path><path d="M923 124L1207 -160" stroke-width="6" stroke="url(&quot;#SvgjsLinearGradient1187&quot;)" stroke-linecap="round" class="TopRight"></path><path d="M339 558L-52 949" stroke-width="6" stroke="url(&quot;#SvgjsLinearGradient1187&quot;)" stroke-linecap="round" class="TopRight"></path><path d="M961 317L560 718" stroke-width="8" stroke="url(&quot;#SvgjsLinearGradient1186&quot;)" stroke-linecap="round" class="TopRight"></path><path d="M1366 501L1554 313" stroke-width="6" stroke="url(&quot;#SvgjsLinearGradient1186&quot;)" stroke-linecap="round" class="TopRight"></path><path d="M1204 143L949 398" stroke-width="8" stroke="url(&quot;#SvgjsLinearGradient1188&quot;)" stroke-linecap="round" class="BottomLeft"></path><path d="M1434 219L1652 1" stroke-width="10" stroke="url(&quot;#SvgjsLinearGradient1186&quot;)" stroke-linecap="round" class="TopRight"></path><path d="M513 541L775 279" stroke-width="10" stroke="url(&quot;#SvgjsLinearGradient1185&quot;)" stroke-linecap="round" class="BottomLeft"></path><path d="M1239 24L1381 -118" stroke-width="6" stroke="url(&quot;#SvgjsLinearGradient1186&quot;)" stroke-linecap="round" class="TopRight"></path><path d="M425 540L242 723" stroke-width="6" stroke="url(&quot;#SvgjsLinearGradient1187&quot;)" stroke-linecap="round" class="TopRight"></path><path d="M120 180L-155 455" stroke-width="10" stroke="url(&quot;#SvgjsLinearGradient1187&quot;)" stroke-linecap="round" class="TopRight"></path><path d="M1426 442L1187 681" stroke-width="8" stroke="url(&quot;#SvgjsLinearGradient1188&quot;)" stroke-linecap="round" class="BottomLeft"></path><path d="M1271 324L1523 72" stroke-width="8" stroke="url(&quot;#SvgjsLinearGradient1185&quot;)" stroke-linecap="round" class="BottomLeft"></path><path d="M945 216L1309 -148" stroke-width="8" stroke="url(&quot;#SvgjsLinearGradient1186&quot;)" stroke-linecap="round" class="TopRight"></path><path d="M891 86L642 335" stroke-width="6" stroke="url(&quot;#SvgjsLinearGradient1186&quot;)" stroke-linecap="round" class="TopRight"></path><path d="M1134 368L1461 41" stroke-width="8" stroke="url(&quot;#SvgjsLinearGradient1188&quot;)" stroke-linecap="round" class="BottomLeft"></path><path d="M607 359L922 44" stroke-width="10" stroke="url(&quot;#SvgjsLinearGradient1187&quot;)" stroke-linecap="round" class="TopRight"></path><path d="M1016 422L813 625" stroke-width="8" stroke="url(&quot;#SvgjsLinearGradient1188&quot;)" stroke-linecap="round" class="BottomLeft"></path><path d="M309 316L-98 723" stroke-width="6" stroke="url(&quot;#SvgjsLinearGradient1188&quot;)" stroke-linecap="round" class="BottomLeft"></path><path d="M787 267L1073 -19" stroke-width="10" stroke="url(&quot;#SvgjsLinearGradient1187&quot;)" stroke-linecap="round" class="TopRight"></path><path d="M592 292L197 687" stroke-width="10" stroke="url(&quot;#SvgjsLinearGradient1185&quot;)" stroke-linecap="round" class="BottomLeft"></path><path d="M1412 300L1128 584" stroke-width="8" stroke="url(&quot;#SvgjsLinearGradient1187&quot;)" stroke-linecap="round" class="TopRight"></path><path d="M1132 557L1397 292" stroke-width="10" stroke="url(&quot;#SvgjsLinearGradient1186&quot;)" stroke-linecap="round" class="TopRight"></path><path d="M511 81L323 269" stroke-width="8" stroke="url(&quot;#SvgjsLinearGradient1185&quot;)" stroke-linecap="round" class="BottomLeft"></path></g><defs><mask id="SvgjsMask1184"><rect width="1440" height="560" fill="#ffffff"></rect></mask><linearGradient x1="100%" y1="0%" x2="0%" y2="100%" id="SvgjsLinearGradient1185"><stop stop-color="rgba(255, 147, 0, 0)" offset="0"></stop><stop stop-color="rgba(255, 147, 0, 1)" offset="1"></stop></linearGradient><linearGradient x1="0%" y1="100%" x2="100%" y2="0%" id="SvgjsLinearGradient1186"><stop stop-color="rgba(255, 147, 0, 0)" offset="0"></stop><stop stop-color="rgba(255, 147, 0, 1)" offset="1"></stop></linearGradient><linearGradient x1="0%" y1="100%" x2="100%" y2="0%" id="SvgjsLinearGradient1187"><stop stop-color="rgba(0, 11, 146, 0)" offset="0"></stop><stop stop-color="rgba(0, 11, 146, 1)" offset="1"></stop></linearGradient><linearGradient x1="100%" y1="0%" x2="0%" y2="100%" id="SvgjsLinearGradient1188"><stop stop-color="rgba(0, 11, 146, 0)" offset="0"></stop><stop stop-color="rgba(0, 11, 146, 1)" offset="1"></stop></linearGradient></defs></svg>